pedal_clip_forces.mot
version=1
nRows=143
nColumns=4
inDegrees=yes
endheader
time	PedalClip_calcn_r_Fx	PedalClip_calcn_r_Fy	PedalClip_calcn_r_Fz
0.25051577	80.2633178353487	-197.550970317661	-0
0.2513979	80.9874219194853	-199.787231579375	-0
0.25188705	81.722039837079	-202.05104082663	-0
0.25237619	82.4672399027114	-204.342586564396	-0
0.25300543	83.223117411703	-206.662103602988	-0
0.25361469	83.9898020390977	-209.009854965686	-0
0.25422395	84.7674651339074	-211.38609767362	-0
0.25536704	85.5563247595795	-213.79103652405	-0
0.25618021	86.356644868392	-216.224778230749	-0
0.25671875	87.1687236752656	-218.687302977879	-0
0.25725729	87.9928663597983	-221.178466188567	-0
0.25831027	88.8293406078412	-223.698035673612	-0
0.25878787	89.678321595261	-226.245769634908	-0
0.25926546	90.5398439375334	-228.821500667588	-0
0.25996894	91.4137846607177	-231.425153897237	-0
0.26059169	92.2998942095964	-234.056703645574	-0
0.26121443	93.1978706816884	-236.716131055202	-0
0.26210752	94.1074489792253	-239.403413765673	-0
0.26300061	95.0284693620049	-242.118525034819	-0
0.2635211	95.9609037721279	-244.861433409743	-0
0.2640416	96.9048409108476	-247.632102411895	-0
0.26477402	97.8604469780171	-250.430490210038	-0
0.26540194	98.8279226440237	-253.256549249196	-0
0.26602986	99.8074712703993	-256.110225808339	-0
0.26691334	100.799284475793	-258.991459475454	-0
0.26779681	101.803544795476	-261.900182546915	-0
0.26832343	102.820439081389	-264.83631935734	-0
0.26885005	103.850172746216	-267.799785509589	-0
0.26981769	104.89297713598	-270.790486968621	-0
0.27078534	105.949113444433	-273.808319016524	-0
0.27129973	107.01887616492	-276.853165050208	-0
0.27201686	108.102596235969	-279.924895193416	-0
0.27271707	109.200643346517	-283.023364691591	-0
0.27341728	110.313426614725	-286.148412057079	-0
0.27427626	111.441392625458	-289.299856935167	-0
0.27514025	112.585019819425	-292.477497672409	-0
0.27583966	113.744808999248	-295.681108593952	-0
0.27653906	114.921272398255	-298.91043704592	-0
0.27786529	116.114927607782	-302.165200347556	-0
0.27840534	117.326297361048	-305.44508294674	-0
0.2789454	118.555910510582	-308.749733200025	-0
0.2798836	119.804302020194	-312.078762164427	-0
0.28064757	121.072011766607	-315.431758664444	-0
0.28141154	122.359582687254	-318.808287589559	-0
0.28230914	123.667559164571	-322.207899532406	-0
0.28314269	124.996486492048	-325.566197207541	-0
0.28385121	126.346911978619	-328.361278098376	-0
0.28470682	127.719387917047	-329.154462698684	-0
0.28538464	129.114476445172	-326.735170591857	-0
0.28624023	130.532756351397	-322.618175716904	-0
0.2869708	131.974832019949	-319.560788489047	-0
0.28787424	133.441344673289	-318.462948158713	-0
0.2886087	134.932985498542	-318.857141281759	-0
0.28953836	136.450509053432	-320.133455649567	-0
0.29033493	137.994744073799	-321.886612490238	-0
0.29133334	139.566598603187	-323.885639734943	-0
0.29218332	141.167058134443	-326.002184553249	-0
0.29326046	142.797178532148	-328.163472628495	-0
0.2943376	144.458077773259	-330.326827640491	-0
0.29541475	146.150930559783	-332.466434054966	-0
0.29726441	147.876968369689	-334.566353689362	-0
0.29827931	149.63748595087	-336.616644691787	-0
0.29951625	151.433853861313	-338.611033519238	-0
0.30048703	153.267535571315	-340.545403252862	-0
0.30145781	155.140107821688	-342.416758663997	-0
0.30242859	157.053284232328	-344.222517302615	-0
0.30339937	159.008943261186	-345.960051843001	-0
0.30423749	161.009161886165	-347.626424315055	-0
0.30507561	163.056256097928	-349.218253678851	-0
0.30591373	165.152828854866	-350.731718323085	-0
0.30675185	167.301825687937	-352.162762490887	-0
0.30788136	169.506597554147	-353.50732081254	-0
0.30869756	145.561450077637	-354.761409029415	-0
0.30951376	113.182979319518	-355.920982780612	-0
0.31024467	111.814698530017	-356.981391207228	-0
0.31097558	111.859663089884	-357.936341535552	-0
0.31166519	111.994402712662	-358.776468334531	-0
0.3123548	112.119873589793	-359.487859182119	-0
0.3129785	112.218839774896	-360.051265289308	-0
0.3136022	112.27892859499	-360.44313180793	-0
0.31425884	112.278708908976	-360.639615006107	-0
0.31491548	112.175728067631	-360.62370901174	-0
0.31547948	111.88565640274	-360.393238145342	-0
0.31604348	111.245837142253	-359.965311530481	-0
0.31711813	109.967808967406	-359.373761714686	-0
0.31819278	107.643003236422	-358.660576388519	-0
0.31865339	104.003412693856	-357.866306251164	-0
0.31911399	99.5259737083863	-357.023990975345	-0
0.31973781	95.4946903321594	-356.15761598861	-0
0.32036163	92.8071222005057	-355.283409546779	-0
0.32098545	91.3256701216553	-354.41193871571	-0
0.32160926	90.5103995130611	-353.54988092502	-0
0.32223308	89.9617450829178	-352.701227428251	-0
0.3228569	89.4880305351092	-351.868078816316	-0
0.32348072	89.0188779965143	-351.051247467178	-0
0.32410453	88.7505476247621	-350.250804745884	-0
0.32472835	115.735377541728	-349.466628497247	-0
0.32535217	114.141448152764	-348.698961735722	-0
0.32597599	112.556636419496	-347.948990944133	-0
0.3265998	110.981030168024	-347.219485145993	-0
0.32722362	109.414704355335	-346.515596502219	-0
0.32784744	107.857723350995	-345.845991865915	-0
0.32847126	106.310142760005	-345.224525428514	-0
0.32909507	104.772010865933	-344.672737546419	-0
0.32971889	103.243369831098	-344.223615280683	-0
0.33034271	101.724256623743	-343.927067026737	-0
0.33096653	100.214703824114	-343.857064083207	-0
0.33159034	98.7147402522751	-344.118026492613	-0
0.33221416	97.2243915108666	-344.840107494975	-0
0.33283798	95.743680431915	-346.133310076932	-0
0.3334618	94.2726274405973	-347.945514705172	-0
0.33408561	92.811250876965	-349.826577706647	-0
0.33464219	91.3595672626845	-350.902650962112	-0
0.33519877	89.917591525213	-350.492608646592	-0
0.33575535	88.4853371899837	-348.781205187284	-0
0.33631193	87.0628165469669	-346.505244348031	-0
0.33686851	85.6500407908591	-344.163783215113	-0
0.33742509	84.2470201466807	-341.837416713579	-0
0.33798167	82.8537639729138	-339.526069298956	-0
0.33853825	81.4702808569086	-337.229760887518	-0
0.33909483	80.0965786881775	-334.94858108675	-0
0.33965142	78.7326647371661	-332.682663515991	-0
0.340208	77.3785457084989	-330.432165546899	-0
0.34076458	76.0342277982389	-328.197253842658	-0
0.34132116	74.6997167385431	-325.978093553269	-0
0.34187774	73.3750178401547	-323.774840545181	-0
0.34243432	72.0601360266288	-321.587636946902	-0
0.3429909	70.7550758675283	-319.416610308859	-0
0.34354748	69.4598416052701	-317.261876238981	-0
0.34410406	68.1744371781348	-315.123543562965	-0
0.34466064	66.8988662435653	-313.001720396708	-0
0.34521722	65.6331321958645	-310.896519710492	-0
0.3457738	64.3772381826642	-308.808063105277	-0
0.34633038	63.1311871183109	-306.736481417728	-0
0.34688696	61.8949816968767	-304.681912082568	-0
0.34744354	60.9251789841789	-302.644494591217	-0
0.34800012	59.7051472861241	-300.624365531539	-0
0.3485567	58.4571929995883	-298.621654254125	-0
0.34911328	57.2213086079214	-296.636479765723	-0
0.34966986	55.9991143885733	-294.668949104519	-0
0.35022644	54.790210123627	-292.719157209062	-0
0.35078302	53.5938095586959	-290.787188131182	-0
0.3513396	52.4090046177015	-288.873117324835	-0
